<?xml version="1.0" encoding="UTF-8"?>
<svg xmlns="http://www.w3.org/2000/svg" viewBox="0 0 229 19" role="img" aria-label="Quinta and Co.">
  <title>Quinta &amp; Co. — Inline Lockup (Reverse)</title>
  <desc>Brand logo: sprout mark beside the wordmark. Reverse color for dark backgrounds.</desc>

  <g transform="translate(0, 0.246) scale(1.241)" fill="none" stroke="#FAFAF6" stroke-linecap="round" stroke-linejoin="round" stroke-width="0.4029">
    <path d="M9 8.5 V 13.5"/>
    <path d="M9 8.5 C6.5 7.9 2.8 6 1 1.1 C4 0 7.8 2.9 9 8.5 Z"/>
    <path d="M9 8.5 C11.5 7.9 15.2 6 17 1.1 C14 0 10.2 2.9 9 8.5 Z"/>
    <circle cx="9" cy="3.5" r="0.8" fill="#FAFAF6" stroke="none"/>
  </g>

  <g fill="#FAFAF6">
    <path transform="translate(30.338,17) scale(0.018000,-0.018000)" d="M417.107666015625 -14 414.154541015625 16.655029296875Q445.31005859375 15.23828125 480.679443359375 8.440673828125Q516.048828125 1.64306640625 556.060791015625 -9.844970703125Q596.07275390625 -21.3330078125 641.95361328125 -37.916259765625Q687.83447265625 -54.49951171875 740.21533203125 -75.28515625Q792.59619140625 -96.07080078125 853.203369140625 -121.463623046875Q913.048828125 -146.07080078125 978.4476318359375 -157.6719970703125Q1043.846435546875 -169.273193359375 1108.5189208984375 -165.677978515625Q1173.19140625 -162.082763671875 1230.85791015625 -140.99951171875Q1288.5244140625 -119.916259765625 1333.107666015625 -79.9521484375L1337.71484375 -84.54736328125Q1332.131591796875 -112.857421875 1305.3280029296875 -144.9112548828125Q1278.5244140625 -176.965087890625 1233.2088623046875 -203.679443359375Q1187.893310546875 -230.393798828125 1126.4705810546875 -243.5782470703125Q1065.0478515625 -256.7626953125 989.726318359375 -248.2327880859375Q914.40478515625 -239.702880859375 827.1904296875 -200.07177734375Q778.154541015625 -177.23828125 726.76171875 -148.416748046875Q675.368896484375 -119.59521484375 622.8988037109375 -91.6844482421875Q570.4287109375 -63.773681640625 518.6610107421875 -42.5772705078125Q466.893310546875 -21.380859375 417.107666015625 -14ZM426.2861328125 714Q536.941162109375 714 620.072265625 668.90478515625Q703.203369140625 623.8095703125 749.6141357421875 542.011962890625Q796.02490234375 460.21435546875 796.02490234375 350Q796.02490234375 239.988037109375 749.6141357421875 158.0892333984375Q703.203369140625 76.1904296875 619.6734619140625 31.09521484375Q536.1435546875 -14 426.2861328125 -14Q315.631103515625 -14 232.202392578125 31.09521484375Q148.773681640625 76.1904296875 102.3629150390625 157.988037109375Q55.9521484375 239.78564453125 55.9521484375 350Q55.9521484375 460.011962890625 102.3629150390625 541.9107666015625Q148.773681640625 623.8095703125 232.202392578125 668.90478515625Q315.631103515625 714 426.2861328125 714ZM426.2861328125 20.0478515625Q506.631103515625 20.0478515625 566.083251953125 61.1370849609375Q625.535400390625 102.226318359375 658.5054931640625 176.21435546875Q691.4755859375 250.202392578125 691.4755859375 350Q691.4755859375 449.797607421875 658.5054931640625 523.78564453125Q625.535400390625 597.773681640625 566.083251953125 638.8629150390625Q506.631103515625 679.9521484375 426.2861328125 679.9521484375Q346.1435546875 679.9521484375 286.2926025390625 638.8629150390625Q226.441650390625 597.773681640625 193.4715576171875 523.78564453125Q160.50146484375 449.797607421875 160.50146484375 350Q160.50146484375 250.202392578125 193.870361328125 176.21435546875Q227.2392578125 102.226318359375 287.0902099609375 61.1370849609375Q346.941162109375 20.0478515625 426.2861328125 20.0478515625Z"/>
    <path transform="translate(51.074,17) scale(0.018000,-0.018000)" d="M208.287109375 700V260Q208.287109375 188.40478515625 233.8763427734375 134.416748046875Q259.465576171875 80.4287109375 305.9476318359375 50.73828125Q352.4296875 21.0478515625 414.21533203125 21.0478515625Q479.393798828125 21.0478515625 527.4710693359375 49.23828125Q575.54833984375 77.4287109375 602.333984375 128.0179443359375Q629.11962890625 178.607177734375 629.11962890625 247V700H684.21533203125V249.02392578125Q684.21533203125 169.8095703125 650.4117431640625 110.8035888671875Q616.608154296875 51.797607421875 554.393798828125 18.8988037109375Q492.179443359375 -14 408.1435546875 -14Q317.250244140625 -14 251.3095703125 18.5Q185.368896484375 51 150.1605224609375 109.90478515625Q114.9521484375 168.8095703125 114.9521484375 248.02392578125V700ZM117.9521484375 700V640H114.9521484375Q114.9521484375 662 99.4521484375 676.0Q83.9521484375 690 61.9521484375 690Q61.9521484375 690 53.9521484375 690.0Q45.9521484375 690 45.9521484375 690V700ZM277.287109375 700V690Q277.287109375 690 269.287109375 690.0Q261.287109375 690 261.287109375 690Q239.287109375 690 223.787109375 676.0Q208.287109375 662 208.287109375 640H206.287109375V700ZM632.11962890625 700V640H629.11962890625Q629.11962890625 662 613.61962890625 676.0Q598.11962890625 690 576.11962890625 690Q576.11962890625 690 568.11962890625 690.0Q560.11962890625 690 560.11962890625 690V700ZM753.21533203125 700V690Q753.21533203125 690 745.21533203125 690.0Q737.21533203125 690 737.21533203125 690Q715.21533203125 690 699.71533203125 676.0Q684.21533203125 662 684.21533203125 640H682.21533203125V700Z"/>
    <path transform="translate(70.820,17) scale(0.018000,-0.018000)" d="M224.26318359375 700V0H130.92822265625V700ZM133.92822265625 73V0H53.92822265625V10Q53.92822265625 10 60.42822265625 10.0Q66.92822265625 10 66.92822265625 10Q92.92822265625 10 111.42822265625 28.5Q129.92822265625 47 130.92822265625 73ZM133.92822265625 627H130.92822265625Q129.92822265625 653 111.42822265625 671.5Q92.92822265625 690 66.92822265625 690Q66.92822265625 690 60.42822265625 690.0Q53.92822265625 690 53.92822265625 690V700H133.92822265625ZM221.26318359375 73H224.26318359375Q225.26318359375 47 243.76318359375 28.5Q262.26318359375 10 288.26318359375 10Q288.26318359375 10 294.26318359375 10.0Q300.26318359375 10 301.26318359375 10V0H221.26318359375ZM221.26318359375 627V700H301.26318359375V690Q300.26318359375 690 294.26318359375 690.0Q288.26318359375 690 288.26318359375 690Q262.26318359375 690 243.76318359375 671.5Q225.26318359375 653 224.26318359375 627Z"/>
    <path transform="translate(82.592,17) scale(0.018000,-0.018000)" d="M120.130615234375 715 720.155517578125 99.0478515625 729.965087890625 -14 129.940185546875 600.9521484375ZM122.940185546875 71V0H39.940185546875V10Q39.940185546875 10 48.940185546875 10.0Q57.940185546875 10 58.940185546875 10Q83.940185546875 10 101.940185546875 28.0Q119.940185546875 46 119.940185546875 71ZM198.322998046875 71Q198.322998046875 46 216.322998046875 28.0Q234.322998046875 10 259.322998046875 10Q260.322998046875 10 269.322998046875 10.0Q278.322998046875 10 278.322998046875 10V0H195.322998046875V71ZM120.130615234375 715 197.322998046875 626.6171875 198.322998046875 0H119.940185546875V590Q119.940185546875 642.619140625 115.035400390625 678.8095703125Q110.130615234375 715 110.130615234375 715ZM729.155517578125 700V114Q729.155517578125 80.178466796875 731.4591064453125 50.7796630859375Q733.7626953125 21.380859375 736.3638916015625 3.6904296875Q738.965087890625 -14 738.965087890625 -14H729.965087890625L651.772705078125 75.228271484375V700ZM809.155517578125 700V690Q809.155517578125 690 800.155517578125 690.0Q791.155517578125 690 791.155517578125 690Q766.155517578125 690 748.155517578125 672.5Q730.155517578125 655 729.155517578125 629H726.155517578125V700ZM570.772705078125 700H653.772705078125V629H651.772705078125Q650.772705078125 655 633.272705078125 672.5Q615.772705078125 690 589.772705078125 690Q589.772705078125 690 580.772705078125 690.0Q571.772705078125 690 570.772705078125 690Z"/>
    <path transform="translate(103.274,17) scale(0.018000,-0.018000)" d="M364.26318359375 697V0H270.92822265625V697ZM617.21533203125 701V666.9521484375H17.97607421875V701ZM617.21533203125 669.9521484375V576.80859375L607.21533203125 577.80859375V592.78466796875Q607.21533203125 624.868408203125 586.3758544921875 645.4102783203125Q565.536376953125 665.9521484375 534.0478515625 666.9521484375V669.9521484375ZM617.21533203125 719V690L495.21533203125 701Q517.21533203125 701 541.71533203125 704.0Q566.21533203125 707 587.21533203125 711.0Q608.21533203125 715 617.21533203125 719ZM273.92822265625 73V0H193.92822265625V10Q193.92822265625 10 200.42822265625 10.0Q206.92822265625 10 206.92822265625 10Q232.92822265625 10 251.42822265625 28.5Q269.92822265625 47 270.92822265625 73ZM361.26318359375 73H364.26318359375Q365.26318359375 47 383.76318359375 28.5Q402.26318359375 10 428.26318359375 10Q428.26318359375 10 434.76318359375 10.0Q441.26318359375 10 441.26318359375 10V0H361.26318359375ZM101.1435546875 669.9521484375V666.9521484375Q68.857421875 665.9521484375 48.416748046875 645.4102783203125Q27.97607421875 624.868408203125 27.97607421875 592.78466796875V577.80859375L17.97607421875 576.80859375V669.9521484375ZM17.97607421875 719Q27.97607421875 715 48.47607421875 711.0Q68.97607421875 707 93.97607421875 704.0Q118.97607421875 701 139.97607421875 701L17.97607421875 690Z"/>
    <path transform="translate(120.086,17) scale(0.018000,-0.018000)" d="M357.380859375 716.02392578125 663.50048828125 6H547.129638671875L323.820556640625 588.438720703125ZM142.380859375 73Q134.97607421875 53 139.97607421875 39.0Q144.97607421875 25 156.678466796875 17.5Q168.380859375 10 180.380859375 10H189.380859375V0H-16.07177734375V10Q-16.07177734375 10 -11.57177734375 10.0Q-7.07177734375 10 -7.07177734375 10Q15.92822265625 10 40.42822265625 24.5Q64.92822265625 39 80.92822265625 73ZM357.380859375 716.02392578125 364.559326171875 628.6181640625 114.5712890625 3H50.321044921875L307.3330078125 603.7138671875Q308.344970703125 605.535400390625 314.4521484375 619.4521484375Q320.559326171875 633.368896484375 328.464111328125 652.380859375Q336.368896484375 671.392822265625 342.273681640625 689.202392578125Q348.178466796875 707.011962890625 348.380859375 716.02392578125ZM486.439697265625 261.463623046875V227.415771484375H179.511474609375V261.463623046875ZM521.320068359375 73H634.488525390625Q649.893310546875 39 674.69091796875 24.5Q699.488525390625 10 722.488525390625 10Q722.488525390625 10 726.488525390625 10.0Q730.488525390625 10 730.488525390625 10V0H474.320068359375V10H483.320068359375Q502.5224609375 10 517.6236572265625 26.5Q532.724853515625 43 521.320068359375 73Z"/>
    <path transform="translate(148.238,17) scale(0.018000,-0.018000)" d="M333.4296875 714Q369.251220703125 714 403.4775390625 705.40478515625Q437.703857421875 696.8095703125 466.322998046875 681.3095703125Q494.942138671875 665.8095703125 512.537353515625 643L488.66796875 519.88037109375H478.870361328125Q478.870361328125 566.868408203125 462.5906982421875 602.987548828125Q446.31103515625 639.106689453125 416.1265869140625 659.5294189453125Q385.942138671875 679.9521484375 342.132568359375 679.9521484375Q287.35888671875 679.9521484375 251.7816162109375 642.2796630859375Q216.204345703125 604.607177734375 216.204345703125 547.0478515625Q216.204345703125 485.6669921875 258.1151123046875 432.1729736328125Q300.02587890625 378.678955078125 378.64501953125 308.6669921875Q400.442626953125 289.869384765625 426.942626953125 265.6729736328125Q453.442626953125 241.4765625 485.2103271484375 214.0064697265625Q516.97802734375 186.536376953125 551.679931640625 157.417724609375Q590.966064453125 124.536376953125 627.90673828125 92.6016845703125Q664.847412109375 60.6669921875 700.8533935546875 38.1490478515625Q736.859375 15.631103515625 773.240234375 10.202392578125L773.442626953125 0Q747.561279296875 -1.21435546875 707.00146484375 -1.02392578125Q666.441650390625 -0.83349609375 619.6973876953125 11.76171875Q572.953125 24.35693359375 527.322021484375 59.559326171875Q493.369873046875 86.7138671875 462.3758544921875 112.404296875Q431.3818359375 138.0947265625 403.869873046875 161.201904296875Q376.35791015625 184.30908203125 352.8519287109375 204.9102783203125Q329.345947265625 225.511474609375 309.572265625 243.28515625Q251.572265625 296.07080078125 208.7447509765625 341.392333984375Q165.917236328125 386.7138671875 142.2921142578125 434.440185546875Q118.6669921875 482.16650390625 118.6669921875 540.5712890625Q118.6669921875 580.607177734375 134.69091796875 612.5179443359375Q150.71484375 644.4287109375 179.845947265625 667.02392578125Q208.97705078125 689.619140625 248.1021728515625 701.8095703125Q287.227294921875 714 333.4296875 714ZM629.466552734375 334.6669921875Q637.4306640625 280.07177734375 631.013916015625 229.5657958984375Q624.59716796875 179.059814453125 604.1864013671875 135.6490478515625Q583.775634765625 92.23828125 548.5552978515625 59.3275146484375Q513.3349609375 26.416748046875 463.489501953125 8.2083740234375Q413.64404296875 -10 349.155517578125 -10Q295.203369140625 -10 246.6021728515625 -1.011962890625Q198.0009765625 7.97607421875 158.2686767578125 26.1605224609375Q118.536376953125 44.344970703125 89.4945068359375 72.1365966796875Q60.45263671875 99.92822265625 44.7203369140625 136.9342041015625Q28.988037109375 173.940185546875 28.988037109375 221.368896484375Q28.988037109375 254.416748046875 38.0179443359375 280.940673828125Q47.0478515625 307.464599609375 62.7921142578125 328.869384765625Q78.536376953125 350.274169921875 98.5782470703125 365.964599609375Q118.6201171875 381.655029296875 140.7452392578125 393.631103515625Q162.870361328125 405.607177734375 185.060791015625 412.773681640625L200.679931640625 391.583251953125Q184.727783203125 378.416748046875 171.6385498046875 361.345458984375Q158.54931640625 344.274169921875 148.942138671875 323.8873291015625Q139.3349609375 303.50048828125 134.525390625 279.393310546875Q129.7158203125 255.2861328125 130.322998046875 228.0478515625Q131.132568359375 181.226318359375 148.04931640625 143.4227294921875Q164.966064453125 105.619140625 195.1744384765625 79.1251220703125Q225.3828125 52.631103515625 267.7696533203125 38.3394775390625Q310.156494140625 24.0478515625 361.703857421875 24.0478515625Q413.31103515625 24.0478515625 452.81103515625 45.155029296875Q492.31103515625 66.26220703125 518.608642578125 100.57177734375Q544.90625 134.88134765625 557.6026611328125 176.5897216796875Q570.299072265625 218.298095703125 568.299072265625 260.00048828125Q566.299072265625 301.702880859375 548.90625 337.095703125Q538.50146484375 358.31005859375 523.1026611328125 370.702880859375Q507.703857421875 383.095703125 485.12060546875 383.095703125H470.12060546875V393.095703125H680.656982421875V383.095703125H665.859375Q643.656982421875 383.095703125 635.1689453125 369.488525390625Q626.680908203125 355.88134765625 629.466552734375 334.6669921875Z"/>
    <path transform="translate(176.138,17) scale(0.018000,-0.018000)" d="M713.845458984375 292 709.131591796875 129.940185546875Q684.345947265625 88.964111328125 645.655517578125 56.5772705078125Q606.965087890625 24.1904296875 553.060302734375 5.09521484375Q499.155517578125 -14 428.131591796875 -14Q318.059814453125 -13 233.5179443359375 31.4940185546875Q148.97607421875 75.988037109375 101.9581298828125 157.3868408203125Q54.940185546875 238.78564453125 54.940185546875 351Q54.940185546875 461.011962890625 101.35693359375 542.511962890625Q147.773681640625 624.011962890625 232.6131591796875 669.0059814453125Q317.45263671875 714 433.11962890625 714Q509.1435546875 714 569.85791015625 695.6131591796875Q630.572265625 677.226318359375 674.16748046875 650.45263671875L688.095703125 499.3330078125H679.095703125Q655.4765625 590.97607421875 589.702880859375 635.464111328125Q523.92919921875 679.9521484375 436.560302734375 679.9521484375Q351.393798828125 679.9521484375 289.322509765625 639.3629150390625Q227.251220703125 598.773681640625 193.2691650390625 525.3868408203125Q159.287109375 452 159.287109375 352.40478515625Q159.287109375 252.8095703125 192.8643798828125 178.7203369140625Q226.441650390625 104.631103515625 286.90576171875 63.3394775390625Q347.369873046875 22.0478515625 428.131591796875 20.0478515625Q501.155517578125 20.0478515625 559.1256103515625 46.0418701171875Q617.095703125 72.035888671875 655.26220703125 131.726318359375Q693.4287109375 191.416748046875 705.845458984375 292Z"/>
    <path transform="translate(195.344,17) scale(0.018000,-0.018000)" d="M433.250244140625 714Q544.702880859375 714 628.2327880859375 668.90478515625Q711.7626953125 623.8095703125 758.1734619140625 542.011962890625Q804.584228515625 460.21435546875 804.584228515625 350Q804.584228515625 239.988037109375 758.1734619140625 158.0892333984375Q711.7626953125 76.1904296875 628.2327880859375 31.09521484375Q544.702880859375 -14 433.250244140625 -14Q322.59521484375 -14 239.16650390625 31.09521484375Q155.73779296875 76.1904296875 109.3270263671875 157.988037109375Q62.916259765625 239.78564453125 62.916259765625 350Q62.916259765625 460.011962890625 109.3270263671875 541.9107666015625Q155.73779296875 623.8095703125 239.16650390625 668.90478515625Q322.59521484375 714 433.250244140625 714ZM433.250244140625 20.0478515625Q513.59521484375 20.0478515625 573.04736328125 61.1370849609375Q632.49951171875 102.226318359375 665.4696044921875 176.21435546875Q698.439697265625 250.202392578125 698.439697265625 350Q698.439697265625 449.797607421875 665.4696044921875 523.78564453125Q632.49951171875 597.773681640625 573.04736328125 638.8629150390625Q513.59521484375 679.9521484375 433.250244140625 679.9521484375Q353.9052734375 679.9521484375 294.453125 638.8629150390625Q235.0009765625 597.773681640625 202.0308837890625 523.78564453125Q169.060791015625 449.797607421875 169.060791015625 350Q169.060791015625 250.202392578125 202.0308837890625 176.21435546875Q235.0009765625 102.226318359375 294.453125 61.1370849609375Q353.9052734375 20.0478515625 433.250244140625 20.0478515625Z"/>
    <path transform="translate(216.080,17) scale(0.018000,-0.018000)" d="M97.083740234375 -6.02392578125Q74.440673828125 -6.02392578125 58.7083740234375 9.7083740234375Q42.97607421875 25.440673828125 42.97607421875 48.083740234375Q42.97607421875 70.92919921875 58.7083740234375 86.560302734375Q74.440673828125 102.19140625 97.083740234375 102.19140625Q119.92919921875 102.19140625 135.560302734375 86.560302734375Q151.19140625 70.92919921875 151.19140625 48.083740234375Q151.19140625 25.440673828125 135.560302734375 9.7083740234375Q119.92919921875 -6.02392578125 97.083740234375 -6.02392578125Z"/>
  </g>
</svg>
